<?xml version="1.0" encoding="utf-8"?>
<!-- Generator: Adobe Illustrator 25.4.1, SVG Export Plug-In . SVG Version: 6.00 Build 0)  -->
<svg version="1.1" xmlns="http://www.w3.org/2000/svg" xmlns:xlink="http://www.w3.org/1999/xlink" x="0px" y="0px"
	 viewBox="0 0 283.46 283.46" style="enable-background:new 0 0 283.46 283.46;" xml:space="preserve">
<style type="text/css">
	.st0{fill:#2A2E46;}
	.st1{fill:#0BBBEF;}
	.st2{display:none;}
	.st3{display:inline;opacity:0.5;fill:#5AB030;stroke:#5AB030;stroke-width:0.9;stroke-miterlimit:10;}
	.st4{font-family:'AvenirNextLTPro-Bold';}
	.st5{font-size:27.5852px;}
	.st6{letter-spacing:2;}
	.st7{display:inline;fill:#2A2E46;}
	.st8{display:none;opacity:0.1;}
	.st9{display:inline;}
</style>
<g id="Logo">
	<g id="INP">
		<path class="st0" d="M212.15,111.14h-23.66c-7.89,0-14.29,6.4-14.29,14.29v78.92h18.19v-76.29h20.04c12.08,0,16.2,6.25,16.2,14.64
			c0,8.53-4.12,14.78-16.2,14.78h-12.64v16.77h12.36c24.16,0,34.96-13.36,34.96-31.55S236.31,111.14,212.15,111.14z"/>
		<rect x="36.35" y="110.9" class="st0" width="16.91" height="93.44"/>
		<path class="st1" d="M36.37,100.09h16.91l0-20.42h0c-9.34,0-16.91,7.57-16.91,16.91L36.37,100.09z"/>
		<path class="st0" d="M132.69,145.12l-44.99-32.49l0,0.01c-1.78-1.1-3.87-1.74-6.11-1.74c-6.44,0-11.66,5.22-11.66,11.66v81.78h17
			v-70.44l45.75,33.08V145.12z"/>
		<path class="st1" d="M93.79,170.12l44.99,32.49l0-0.01c1.78,1.1,3.87,1.74,6.11,1.74c6.44,0,11.66-5.22,11.66-11.66V110.9h-17
			v70.44l-45.75-33.08V170.12z"/>
	</g>
	<g id="Bordeaux_1_">
		<polygon class="st0" points="238.4,89.32 244.88,79.66 238.28,79.66 234.95,85.3 231.57,79.66 224.78,79.66 231.38,89.33 
			224.24,100.09 230.96,100.09 234.82,93.61 238.84,100.09 245.77,100.09 		"/>
		<path class="st0" d="M215.67,91.89c0,1.08-0.31,3.58-3.22,3.58c-2.91,0-3.22-2.5-3.22-3.58V79.66h-5.59v12.62
			c0,4.99,3.53,8.34,8.78,8.34c5.3,0,8.86-3.35,8.86-8.34V79.66h-5.62V91.89z"/>
		<path class="st0" d="M187.49,79.66l-8.57,20.43h6.12l1.43-3.83h6.94l1.52,3.83h6.22l-8.49-20.43H187.49z M191.78,91.58h-3.62
			l1.83-4.95L191.78,91.58z"/>
		<polygon class="st0" points="167.64,95.19 167.64,91.92 175.8,91.92 175.8,87.3 167.64,87.3 167.64,84.4 176.27,84.4 
			176.27,79.58 162.24,79.58 162.24,100.06 176.77,100.06 176.77,95.19 		"/>
		<path class="st0" d="M145.61,79.66h-7.51v20.43h7.73c5.68,0,11.4-3.18,11.4-10.27C157.23,80.65,149.1,79.66,145.61,79.66z
			 M143.6,84.59h1.89c2.7,0,5.92,0.91,5.92,5.23c0,4.37-3.28,5.29-6.03,5.29h-1.78V84.59z"/>
		<path class="st0" d="M131.81,89.55c0.78-0.98,1.17-2.19,1.17-3.61c0-1.19-0.23-2.21-0.69-3.03c-0.46-0.81-1.08-1.48-1.84-1.97
			c-0.75-0.49-1.61-0.84-2.55-1.04c-0.92-0.2-1.88-0.3-2.85-0.3h-7.91v20.47h5.45v-7.8h0.97l4.27,7.8h6.52l-5.25-8.6
			C130.23,91.03,131.13,90.39,131.81,89.55z M122.57,84.23h2.13c0.33,0,0.68,0.03,1.04,0.08c0.34,0.05,0.64,0.14,0.91,0.28
			c0.25,0.13,0.45,0.3,0.6,0.53c0.15,0.22,0.22,0.52,0.22,0.9c0,0.41-0.08,0.75-0.25,0.99c-0.17,0.26-0.39,0.45-0.67,0.59
			c-0.29,0.15-0.63,0.25-1,0.31c-0.39,0.06-0.77,0.09-1.14,0.09h-1.85V84.23z"/>
		<path class="st0" d="M109.1,81.94c-0.99-0.92-2.18-1.64-3.54-2.14c-2.71-0.99-6.13-0.99-8.82,0c-1.35,0.5-2.54,1.22-3.52,2.14
			c-0.99,0.92-1.78,2.06-2.33,3.37c-0.56,1.31-0.84,2.8-0.84,4.42c0,1.6,0.28,3.09,0.84,4.42c0.56,1.33,1.34,2.49,2.33,3.44
			c0.99,0.95,2.18,1.69,3.52,2.21c1.35,0.51,2.83,0.78,4.41,0.78c1.58,0,3.07-0.26,4.42-0.78c1.36-0.52,2.55-1.26,3.54-2.21
			c0.99-0.95,1.77-2.11,2.33-3.44c0.56-1.33,0.84-2.82,0.84-4.42c0-1.62-0.28-3.11-0.84-4.42C110.87,84,110.09,82.86,109.1,81.94z
			 M106.37,89.74c0,0.84-0.13,1.62-0.39,2.32c-0.26,0.7-0.62,1.3-1.08,1.79c-0.46,0.49-1.01,0.89-1.64,1.17
			c-1.26,0.56-2.96,0.56-4.22,0c-0.63-0.28-1.18-0.67-1.63-1.17c-0.45-0.49-0.81-1.1-1.07-1.8c-0.26-0.7-0.39-1.48-0.39-2.32
			c0-0.8,0.13-1.56,0.38-2.25c0.25-0.68,0.61-1.27,1.06-1.76c0.46-0.49,1.02-0.88,1.65-1.16c0.63-0.28,1.34-0.42,2.11-0.42
			c0.77,0,1.49,0.14,2.13,0.42c0.64,0.28,1.19,0.67,1.64,1.15c0.45,0.49,0.81,1.08,1.07,1.77
			C106.24,88.18,106.37,88.94,106.37,89.74z"/>
		<path class="st0" d="M82.87,89.29c1.54-0.88,2.4-2.34,2.4-4.16c0-3.43-2.65-5.47-7.1-5.47h-8.23v20.43h8.23
			c4.95,0,7.9-2.29,7.9-6.13C86.07,91.79,84.85,90.05,82.87,89.29z M75.39,91.82h2.17c2.55,0,2.89,0.86,2.89,1.7
			c0,1.24-0.96,1.87-2.86,1.87h-2.2V91.82z M77.48,87.44h-2.09v-3.13h1.87c2.56,0,2.56,1.02,2.56,1.45
			C79.82,87.15,78.55,87.44,77.48,87.44z"/>
	</g>
	<g id="Éléments_de_construction" class="st2">
		<text transform="matrix(1 0 0 1 68.396 99.6432)" class="st3 st4 st5 st6">BORDEAUX</text>
		<polygon class="st7" points="167.64,95.19 167.64,91.92 175.8,91.92 175.8,87.3 167.64,87.3 167.64,84.4 176.27,84.4 
			176.27,79.58 162.24,79.58 162.24,100.06 176.77,100.06 176.77,95.19 		"/>
		<path class="st7" d="M109.1,81.94c-0.99-0.92-2.18-1.64-3.54-2.14c-2.71-0.99-6.13-0.99-8.82,0c-1.35,0.5-2.54,1.22-3.52,2.14
			c-0.99,0.92-1.78,2.06-2.33,3.37c-0.56,1.31-0.84,2.8-0.84,4.42c0,1.6,0.28,3.09,0.84,4.42c0.56,1.33,1.34,2.49,2.33,3.44
			c0.99,0.95,2.18,1.69,3.52,2.21c1.35,0.51,2.83,0.78,4.41,0.78c1.58,0,3.07-0.26,4.42-0.78c1.36-0.52,2.55-1.26,3.54-2.21
			c0.99-0.95,1.77-2.11,2.33-3.44c0.56-1.33,0.84-2.82,0.84-4.42c0-1.62-0.28-3.11-0.84-4.42C110.87,84,110.09,82.86,109.1,81.94z
			 M106.37,89.74c0,0.84-0.13,1.62-0.39,2.32c-0.26,0.7-0.62,1.3-1.08,1.79c-0.46,0.49-1.01,0.89-1.64,1.17
			c-1.26,0.56-2.96,0.56-4.22,0c-0.63-0.28-1.18-0.67-1.63-1.17c-0.45-0.49-0.81-1.1-1.07-1.8c-0.26-0.7-0.39-1.48-0.39-2.32
			c0-0.8,0.13-1.56,0.38-2.25c0.25-0.68,0.61-1.27,1.06-1.76c0.46-0.49,1.02-0.88,1.65-1.16c0.63-0.28,1.34-0.42,2.11-0.42
			c0.77,0,1.49,0.14,2.13,0.42c0.64,0.28,1.19,0.67,1.64,1.15c0.45,0.49,0.81,1.08,1.07,1.77
			C106.24,88.18,106.37,88.94,106.37,89.74z"/>
		<path class="st7" d="M131.81,89.55c0.78-0.98,1.17-2.19,1.17-3.61c0-1.19-0.23-2.21-0.69-3.03c-0.46-0.81-1.08-1.48-1.84-1.97
			c-0.75-0.49-1.61-0.84-2.55-1.04c-0.92-0.2-1.88-0.3-2.85-0.3h-7.91v20.47h5.45v-7.8h0.97l4.27,7.8h6.52l-5.25-8.6
			C130.23,91.03,131.13,90.39,131.81,89.55z M122.57,84.23h2.13c0.33,0,0.68,0.03,1.04,0.08c0.34,0.05,0.64,0.14,0.91,0.28
			c0.25,0.13,0.45,0.3,0.6,0.53c0.15,0.22,0.22,0.52,0.22,0.9c0,0.41-0.08,0.75-0.25,0.99c-0.17,0.26-0.39,0.45-0.67,0.59
			c-0.29,0.15-0.63,0.25-1,0.31c-0.39,0.06-0.77,0.09-1.14,0.09h-1.85V84.23z"/>
	</g>
</g>
<g id="Repères">
</g>
<g id="Marges_de_sécurité" class="st8">
	<g class="st9">
		<path d="M247.22,128.21h20.04c12.08,0,16.2,6.25,16.2,14.64c0,8.53-4.12,14.78-16.2,14.78h-20.04V128.21z"/>
	</g>
	<g class="st9">
		<path d="M0,128.21h20.04c12.08,0,16.2,6.25,16.2,14.64c0,8.53-4.12,14.78-16.2,14.78H0V128.21z"/>
	</g>
	<g class="st9">
		<path d="M127.02,79.5V59.46c0-12.08,6.25-16.2,14.64-16.2c8.53,0,14.78,4.12,14.78,16.2V79.5H127.02z"/>
	</g>
	<g class="st9">
		<path d="M127.02,240.57v-20.04c0-12.08,6.25-16.2,14.64-16.2c8.53,0,14.78,4.12,14.78,16.2v20.04H127.02z"/>
	</g>
</g>
</svg>
